# xmcd
#
# Track frame offsets:
#	150
#	9360
#	32260
#	52535
#	62692
#	75890
#	86537
#	97672
#	108725
#	120345
#	134050
#	151965
#	161032
#	179380
#	192585
#	202467
#	215740
#	223600
#	234417
#	248897
#	262427
#	275155
#	296367
#	312360
#	324937
#
# Disc length: 4468 seconds
#
# Revision: 1
# Processed by: cddbd v1.5.2PL0 Copyright (c) Steve Scherf et al.
# Submitted via: EZCDAudioConverter 6.0.0.1
#
DISCID=66117219
DTITLE=Various Artist - 25 Golden Hits
DYEAR=1989
DGENRE=
TTITLE0=My Girl Josephine
TTITLE1=Daydream
TTITLE2=The House Of The Rising Sun
TTITLE3=I Get Around
TTITLE4=Apache
TTITLE5=Non, Je Ne Regrette Rien!!
TTITLE6=Hurt
TTITLE7=Huckle Buck
TTITLE8=I Love You, You Love Me
TTITLE9=Vous Permettez, Monsieur
TTITLE10=Honey
TTITLE11=Nut Rocker
TTITLE12=Nathalie
TTITLE13=Bus Stop
TTITLE14=Queen For Tonight
TTITLE15=No Milk Today
TTITLE16=Hippy Hippy Shake
TTITLE17=Doo Wah Diddy
TTITLE18=She Wears My Ring
TTITLE19=You're My World
TTITLE20=Goldfinger
TTITLE21=Where Do You Go To
TTITLE22=Ce N'est Rien
TTITLE23=Spanish Eyes
TTITLE24=Dreamin'
EXTD=
EXTT0=
EXTT1=
EXTT2=
EXTT3=
EXTT4=
EXTT5=
EXTT6=
EXTT7=
EXTT8=
EXTT9=
EXTT10=
EXTT11=
EXTT12=
EXTT13=
EXTT14=
EXTT15=
EXTT16=
EXTT17=
EXTT18=
EXTT19=
EXTT20=
EXTT21=
EXTT22=
EXTT23=
EXTT24=
PLAYORDER=
